<svg width="92" height="45" viewBox="0 0 92 45" fill="none" xmlns="http://www.w3.org/2000/svg">
<path d="M12.6138 20.1793C13.7063 20.1296 14.7094 20.3481 15.6629 20.8348C16.9043 21.4605 17.7684 22.4239 18.3146 23.6852C18.7119 24.5989 18.8708 25.5822 18.7914 26.5753C18.6623 28.3134 18.0961 29.8727 16.9043 31.1936C16.6362 31.4915 16.3581 31.7498 16.0502 31.9981C15.9112 32.1073 15.8714 32.2066 15.9708 32.3854C16.1595 32.7032 16.3184 33.0508 16.4773 33.3885C16.5071 33.4481 16.5667 33.5077 16.4475 33.5772C16.08 33.7758 15.7324 34.0142 15.3053 34.0837C14.6896 34.183 14.183 33.9745 13.8156 33.4779C13.7163 33.3488 13.6567 33.309 13.4878 33.3587C12.6337 33.5871 11.7597 33.7361 10.8658 33.6964C9.49527 33.6368 8.23394 33.2495 7.15138 32.3953C5.97943 31.4518 5.32394 30.2302 5.09551 28.7702C4.84722 27.201 5.08558 25.6914 5.7808 24.2612C6.28732 23.2085 7.0322 22.3345 7.97571 21.6393C8.98875 20.8944 10.1309 20.4177 11.3823 20.2488C11.7994 20.1793 12.2166 20.1495 12.6138 20.1793ZM14.7789 29.9223C14.9875 29.7138 15.1762 29.5151 15.3351 29.2867C16.0204 28.3134 16.3482 27.2408 16.3184 26.0489C16.2886 25.0955 15.9708 24.2513 15.2855 23.5958C14.1731 22.5232 12.8125 22.255 11.3326 22.5927C10.1806 22.8609 9.25691 23.4766 8.53189 24.4102C7.59831 25.602 7.28049 26.9726 7.55858 28.4226C7.81681 29.7833 8.68087 30.7169 10.0117 31.1638C10.8162 31.4319 11.6405 31.4419 12.4649 31.2234C12.6138 31.1837 12.6834 31.1539 12.584 30.9652C12.2762 30.3593 11.9881 29.7535 11.6902 29.1476C11.6405 29.0483 11.6207 28.9788 11.7597 28.9291C12.2563 28.7206 12.7628 28.6213 13.2892 28.7504C13.9546 28.9093 14.4512 29.2867 14.7789 29.9223Z" fill="#CACACA"/>
<path d="M33.3017 24.6585C34.3743 24.6883 35.2483 25.1054 35.9137 25.9596C36.7381 27.0223 37.5922 28.075 38.4165 29.1377C38.5556 29.3165 38.6152 29.2966 38.7244 29.1179C39.1416 28.373 39.5686 27.638 39.9957 26.8932C40.7008 25.6715 41.406 24.44 42.1012 23.2184C42.5879 22.3643 43.0646 21.5002 43.5512 20.656C44.2465 19.4444 44.9417 18.2327 45.6369 17.0309C46.4215 15.6703 47.1863 14.2997 47.9808 12.949C48.3185 12.373 48.5866 11.7572 49.0137 11.2308C49.5401 10.5654 50.2254 10.178 51.0596 10.039C51.5463 9.95955 52.0131 10.0092 52.4799 10.1185C52.6785 10.1681 52.758 10.2078 52.6288 10.4462C51.6456 12.1346 50.6822 13.8329 49.7089 15.5213C48.9144 16.9118 48.1198 18.2923 47.3154 19.6827C46.5804 20.9639 45.8455 22.2451 45.1105 23.5362C44.465 24.6585 43.8393 25.7907 43.1937 26.9229C42.2204 28.6213 41.2471 30.3097 40.2738 31.9981C39.9162 32.6238 39.5488 33.2594 39.1912 33.8851C39.1018 34.0539 39.0323 34.1135 38.8734 33.9248C37.8206 32.7231 36.7579 31.5511 35.7846 30.2799C34.5034 28.6113 33.1924 26.9627 31.8815 25.314C31.7424 25.1352 31.7126 25.0459 31.9609 24.9565C32.388 24.7777 32.825 24.6486 33.3017 24.6585Z" fill="#2196F3"/>
<path d="M23.9757 33.6964C22.7243 33.6864 21.7112 33.4282 20.8571 32.7032C20.2513 32.1867 19.8838 31.5213 19.7646 30.7466C19.5759 29.5052 20.0427 28.4921 20.9366 27.6678C21.2544 27.3798 21.6219 27.1215 22.0489 26.9825C22.2972 26.903 22.2972 26.8435 22.1085 26.6647C21.3438 25.9595 21.0558 25.0955 21.2246 24.0626C21.4828 22.4934 22.5058 21.6194 23.8863 21.0632C24.6014 20.7752 25.3562 20.6858 26.1209 20.7454C27.0744 20.805 27.9484 21.1029 28.6237 21.8279C29.2792 22.5331 29.4977 23.3773 29.3587 24.3307C29.1998 25.4232 28.5542 26.1582 27.6504 26.7044C27.3227 26.903 27.3227 26.8931 27.6306 27.1315C28.5741 27.8565 28.9018 28.8099 28.7926 29.9918C28.6039 31.9782 26.8956 33.1998 25.2668 33.5374C24.7901 33.6368 24.3134 33.7162 23.9757 33.6964ZM23.9161 31.4816C24.8298 31.4816 25.5548 31.2531 26.0713 30.5877C26.6672 29.813 26.6175 28.5418 25.3959 28.1147C25.0682 27.9955 24.7305 27.9856 24.3928 27.9955C23.6281 28.0353 22.9726 28.3134 22.5157 28.949C21.9595 29.7137 22.0688 30.7069 22.8633 31.2035C23.2109 31.422 23.5983 31.5114 23.9161 31.4816ZM25.0483 25.8999C25.7336 25.89 26.2798 25.7212 26.7268 25.2643C27.3624 24.6088 27.2134 23.3971 26.2898 23.0098C25.535 22.692 24.4226 22.9006 23.8565 23.4965C23.5288 23.8441 23.34 24.6684 23.6181 25.1352C23.9558 25.7112 24.4921 25.8701 25.0483 25.8999Z" fill="#CACACA"/>
<path d="M72.82 29.5945C71.5786 29.5945 70.347 29.5945 69.1056 29.5945C68.9069 29.5945 68.8672 29.6541 68.8672 29.8428C68.8672 30.8857 69.5326 31.7795 70.5556 32.0377C71.5885 32.296 72.5717 32.1271 73.5152 31.6305C74.3892 31.1737 75.303 31.1935 76.2266 31.5511C76.4153 31.6305 76.4451 31.7001 76.316 31.8788C75.7201 32.7628 74.9851 33.5076 74.0317 33.9943C73.5053 34.2624 72.9293 34.4015 72.3433 34.4909C71.956 34.5505 71.5587 34.5703 71.1714 34.5703C70.3768 34.5604 69.6021 34.4412 68.8771 34.0539C67.437 33.2891 66.6127 32.1073 66.3445 30.5083C66.0565 28.8397 66.4439 27.3202 67.3874 25.9397C68.0627 24.9564 68.9864 24.2413 70.0987 23.7944C70.9529 23.4567 71.8368 23.3077 72.7505 23.3673C74.3594 23.4766 75.6506 24.1619 76.4948 25.5722C76.8225 26.1184 76.9715 26.7441 77.0509 27.3897C77.1403 28.0551 77.0013 28.6907 76.8821 29.3363C76.8424 29.5449 76.753 29.6243 76.5146 29.6243C75.2831 29.5846 74.0516 29.5945 72.82 29.5945ZM69.2545 27.6678C70.9727 27.6678 72.681 27.6678 74.3892 27.6678C74.5382 27.6678 74.5481 27.6082 74.5481 27.489C74.5481 27.201 74.4687 26.9328 74.3197 26.6845C73.8529 25.8999 73.108 25.592 72.2539 25.5722C71.3303 25.5424 70.5357 25.8999 69.91 26.5753C69.622 26.8832 69.3538 27.2109 69.2545 27.6678Z" fill="#CACACA"/>
<path d="M45.7858 29.7038C45.7858 28.0452 46.2526 26.6746 47.2061 25.4927C47.6331 24.9564 48.1694 24.5294 48.7753 24.1917C49.5897 23.7249 50.4637 23.4965 51.3873 23.3971C52.311 23.2879 53.1949 23.3971 54.049 23.7249C55.3302 24.2115 56.2141 25.1253 56.7207 26.3965C57.0484 27.2308 57.0782 28.0948 57.0087 28.9788C56.9491 29.7932 56.7306 30.5579 56.3731 31.273C55.6977 32.6138 54.6648 33.5672 53.2545 34.1035C52.5493 34.3717 51.8243 34.4909 51.0695 34.5306C49.7585 34.6001 48.5866 34.2922 47.5437 33.4778C46.6499 32.7727 46.1334 31.849 45.8951 30.7566C45.8057 30.3692 45.7759 29.9719 45.7858 29.7038ZM54.3271 28.5716C54.337 28.363 54.3271 28.1346 54.2775 27.8962C54.1285 27.2109 53.8007 26.6349 53.185 26.2674C52.0329 25.5821 50.5828 25.8304 49.6195 26.7441C49.0236 27.3102 48.676 28.0055 48.5568 28.8199C48.4177 29.7534 48.5965 30.6076 49.2421 31.3227C49.9671 32.1271 51.1688 32.2066 52.1521 31.8689C53.4631 31.412 54.3668 30.0216 54.3271 28.5716Z" fill="#CBCBCB"/>
<path d="M82.0665 34.4214C80.9542 34.4612 79.961 34.2228 79.087 33.5872C78.4514 33.1204 77.9945 32.5245 77.7561 31.7597C77.7065 31.6207 77.7363 31.5611 77.8852 31.5114C78.7692 31.2135 79.6134 31.2631 80.3781 31.8094C81.0634 32.296 81.8083 32.5046 82.6227 32.4152C83.1292 32.3556 83.5761 32.1769 83.9237 31.7498C84.3309 31.2532 84.1124 30.3991 83.4967 30.0515C82.8511 29.6939 82.1261 29.6244 81.4408 29.4158C80.4874 29.1278 79.6134 28.7107 79.0969 27.797C78.7592 27.1911 78.7394 26.5356 78.8983 25.8702C79.1168 24.9565 79.7127 24.3606 80.5172 23.9335C81.4209 23.4469 82.4042 23.2979 83.4172 23.3575C84.4899 23.4171 85.4731 23.7448 86.2577 24.5195C86.5656 24.8174 86.8139 25.175 86.9728 25.5822C87.0224 25.7212 87.0125 25.7709 86.8735 25.8305C85.9597 26.2277 85.0957 26.1781 84.2316 25.6616C83.4371 25.1948 82.6028 25.1452 81.7686 25.5226C81.3514 25.7113 81.0634 26.0092 81.0833 26.5158C81.0932 26.8038 81.272 26.9826 81.4607 27.1613C81.848 27.5189 82.3446 27.5983 82.8312 27.7274C83.5165 27.9161 84.2217 28.0155 84.8673 28.3631C85.9796 28.9689 86.5259 29.9124 86.4365 31.1539C86.3371 32.6139 85.5426 33.5474 84.182 34.1036C83.8443 34.2427 83.4867 34.3221 83.1292 34.3817C82.7717 34.4413 82.4042 34.4512 82.0665 34.4214Z" fill="#CACACA"/>
<path d="M65.9274 23.6852C65.7883 24.9465 64.5866 25.9993 63.3153 25.9894C63.0273 25.9894 62.9379 26.0589 62.8882 26.3469C62.6697 27.6976 62.4115 29.0483 62.1831 30.3991C62.1434 30.6275 62.1533 30.8559 62.1732 31.0844C62.203 31.4717 62.6697 31.8292 63.1167 31.8491C63.5636 31.869 63.9509 31.7101 64.3482 31.5412C64.4277 31.5015 64.5071 31.4618 64.6362 31.4022C64.4972 32.4053 64.4575 33.4084 63.504 34.0341C62.8485 34.4611 62.1235 34.481 61.3985 34.2923C60.1868 33.9745 59.5512 33.2594 59.4121 32.0775C59.3327 31.3823 59.4121 30.6672 59.5412 29.972C59.72 29.0186 59.869 28.0651 60.0378 27.1017C60.0875 26.7839 60.1371 26.476 60.2166 26.1681C60.2663 25.9993 60.2067 25.9794 60.0676 25.9794C59.6108 25.9794 59.1638 25.9695 58.707 25.9894C58.4686 25.9993 58.4289 25.9099 58.4686 25.7014C58.6474 24.5592 59.3426 23.8342 60.5046 23.6753C60.6437 23.6554 60.6735 23.6157 60.7033 23.4866C60.882 22.6225 60.9714 21.7485 61.1701 20.8845C61.2098 20.7256 61.2694 20.7256 61.3786 20.7256C62.0937 20.7752 62.6499 21.1129 63.0571 21.679C63.4246 22.1855 63.5537 22.7715 63.4146 23.3972C63.3749 23.576 63.3948 23.6852 63.6431 23.6753C64.4078 23.6653 65.1725 23.6852 65.9274 23.6852Z" fill="#CACACA"/>
</svg>
