<svg width="82" height="26" viewBox="0 0 82 26" fill="none" xmlns="http://www.w3.org/2000/svg">
<rect width="82" height="26" fill="#1E1E1E"/>
<g clip-path="url(#clip0_0_1)">
<rect width="430" height="932" transform="translate(-174 -67)" fill="white"/>
<rect width="430" height="48" transform="translate(-174 -11)" fill="#2196F3"/>
<path d="M7.61383 10.8941C8.70632 10.8445 9.70943 11.063 10.6629 11.5496C11.9043 12.1753 12.7684 13.1387 13.3146 14.4C13.7119 15.3138 13.8708 16.297 13.7914 17.2902C13.6623 19.0282 13.0961 20.5875 11.9043 21.9084C11.6362 22.2064 11.3581 22.4646 11.0502 22.7129C10.9112 22.8221 10.8714 22.9215 10.9708 23.1002C11.1595 23.418 11.3184 23.7657 11.4773 24.1033C11.5071 24.1629 11.5667 24.2225 11.4475 24.292C11.08 24.4907 10.7324 24.729 10.3053 24.7986C9.68956 24.8979 9.18305 24.6893 8.81557 24.1927C8.71626 24.0636 8.65666 24.0239 8.48782 24.0735C7.6337 24.302 6.7597 24.4509 5.86585 24.4112C4.49527 24.3516 3.23394 23.9643 2.15138 23.1102C0.979435 22.1667 0.323941 20.945 0.0955107 19.4851C-0.152783 17.9159 0.085579 16.4062 0.7808 14.9761C1.28732 13.9233 2.0322 13.0493 2.97571 12.3541C3.98875 11.6092 5.1309 11.1325 6.3823 10.9637C6.79943 10.8941 7.21656 10.8643 7.61383 10.8941ZM9.77895 20.6372C9.98752 20.4286 10.1762 20.23 10.3351 20.0015C11.0204 19.0282 11.3482 17.9556 11.3184 16.7638C11.2886 15.8103 10.9708 14.9661 10.2855 14.3106C9.17311 13.238 7.81247 12.9699 6.33264 13.3075C5.18056 13.5757 4.25691 14.1915 3.53189 15.1251C2.59831 16.3169 2.28049 17.6874 2.55858 19.1375C2.81681 20.4981 3.68087 21.4317 5.01172 21.8786C5.81619 22.1468 6.64052 22.1567 7.46486 21.9382C7.61383 21.8985 7.68335 21.8687 7.58404 21.68C7.27615 21.0742 6.98813 20.4683 6.69018 19.8625C6.64052 19.7632 6.62066 19.6937 6.7597 19.644C7.25629 19.4354 7.76281 19.3361 8.28919 19.4652C8.95462 19.6241 9.4512 20.0015 9.77895 20.6372Z" fill="white"/>
<path d="M28.3017 15.3734C29.3743 15.4032 30.2483 15.8203 30.9137 16.6744C31.7381 17.7371 32.5922 18.7899 33.4165 19.8526C33.5556 20.0313 33.6152 20.0115 33.7244 19.8327C34.1416 19.0878 34.5686 18.3529 34.9957 17.608C35.7008 16.3864 36.406 15.1549 37.1012 13.9333C37.5879 13.0791 38.0646 12.2151 38.5512 11.3709C39.2465 10.1592 39.9417 8.94752 40.6369 7.74578C41.4215 6.38514 42.1863 5.01456 42.9808 3.66384C43.3185 3.0878 43.5866 2.47203 44.0137 1.94565C44.5401 1.28023 45.2254 0.892888 46.0596 0.753844C46.5463 0.67439 47.0131 0.724049 47.4799 0.833298C47.6785 0.882956 47.758 0.922684 47.6288 1.16105C46.6456 2.84944 45.6822 4.54777 44.7089 6.23616C43.9144 7.6266 43.1198 9.00711 42.3154 10.3976C41.5804 11.6788 40.8455 12.9599 40.1105 14.2511C39.465 15.3734 38.8393 16.5056 38.1937 17.6378C37.2204 19.3361 36.2471 21.0245 35.2738 22.7129C34.9162 23.3386 34.5488 23.9742 34.1912 24.5999C34.1018 24.7688 34.0323 24.8284 33.8734 24.6397C32.8206 23.4379 31.7579 22.266 30.7846 20.9947C29.5034 19.3262 28.1924 17.6775 26.8815 16.0289C26.7424 15.8501 26.7126 15.7607 26.9609 15.6713C27.388 15.4925 27.825 15.3634 28.3017 15.3734Z" fill="white"/>
<path d="M18.9757 24.4112C17.7243 24.4013 16.7113 24.143 15.8571 23.418C15.2513 22.9016 14.8838 22.2361 14.7647 21.4615C14.576 20.22 15.0427 19.207 15.9366 18.3826C16.2544 18.0946 16.6219 17.8364 17.049 17.6973C17.2972 17.6179 17.2972 17.5583 17.1085 17.3795C16.3438 16.6744 16.0558 15.8103 16.2246 14.7774C16.4828 13.2082 17.5058 12.3342 18.8863 11.778C19.6014 11.49 20.3562 11.4006 21.121 11.4602C22.0744 11.5198 22.9484 11.8178 23.6238 12.5428C24.2793 13.2479 24.4978 14.0921 24.3587 15.0456C24.1998 16.1381 23.5542 16.873 22.6505 17.4193C22.3227 17.6179 22.3227 17.608 22.6306 17.8463C23.5741 18.5713 23.9018 19.5248 23.7926 20.7067C23.6039 22.693 21.8956 23.9146 20.2668 24.2523C19.7901 24.3516 19.3134 24.4311 18.9757 24.4112ZM18.9161 22.1964C19.8298 22.1964 20.5549 21.968 21.0713 21.3026C21.6672 20.5279 21.6176 19.2566 20.3959 18.8296C20.0682 18.7104 19.7305 18.7005 19.3928 18.7104C18.6281 18.7501 17.9726 19.0282 17.5157 19.6638C16.9596 20.4286 17.0688 21.4217 17.8634 21.9183C18.211 22.1368 18.5983 22.2262 18.9161 22.1964ZM20.0483 16.6148C20.7336 16.6049 21.2799 16.436 21.7268 15.9792C22.3624 15.3237 22.2135 14.112 21.2898 13.7247C20.535 13.4068 19.4226 13.6154 18.8565 14.2113C18.5288 14.5589 18.3401 15.3832 18.6182 15.85C18.9558 16.4261 19.4922 16.585 20.0483 16.6148Z" fill="white"/>
<path d="M67.82 20.3094C66.5786 20.3094 65.347 20.3094 64.1056 20.3094C63.9069 20.3094 63.8672 20.369 63.8672 20.5577C63.8672 21.6005 64.5326 22.4944 65.5556 22.7526C66.5885 23.0108 67.5717 22.842 68.5152 22.3454C69.3892 21.8885 70.303 21.9084 71.2266 22.2659C71.4153 22.3454 71.4451 22.4149 71.316 22.5937C70.7201 23.4776 69.9851 24.2225 69.0317 24.7091C68.5053 24.9773 67.9293 25.1163 67.3433 25.2057C66.956 25.2653 66.5587 25.2852 66.1714 25.2852C65.3768 25.2752 64.6021 25.1561 63.8771 24.7687C62.437 24.004 61.6127 22.8221 61.3445 21.2231C61.0565 19.5546 61.4439 18.035 62.3874 16.6545C63.0627 15.6713 63.9864 14.9562 65.0987 14.5092C65.9529 14.1716 66.8368 14.0226 67.7505 14.0822C69.3594 14.1914 70.6506 14.8767 71.4948 16.287C71.8225 16.8333 71.9715 17.459 72.0509 18.1045C72.1403 18.77 72.0013 19.4056 71.8821 20.0512C71.8424 20.2597 71.753 20.3392 71.5146 20.3392C70.2831 20.2994 69.0516 20.3094 67.82 20.3094ZM64.2545 18.3826C65.9727 18.3826 67.681 18.3826 69.3892 18.3826C69.5382 18.3826 69.5481 18.323 69.5481 18.2038C69.5481 17.9158 69.4687 17.6477 69.3197 17.3994C68.8529 16.6148 68.108 16.3069 67.2539 16.287C66.3303 16.2572 65.5357 16.6148 64.91 17.2901C64.622 17.598 64.3538 17.9258 64.2545 18.3826Z" fill="white"/>
<path d="M40.7858 20.4186C40.7858 18.76 41.2526 17.3895 42.2061 16.2076C42.6331 15.6713 43.1694 15.2442 43.7753 14.9065C44.5897 14.4397 45.4637 14.2113 46.3873 14.112C47.311 14.0027 48.1949 14.112 49.049 14.4397C50.3302 14.9264 51.2141 15.8401 51.7207 17.1114C52.0484 17.9456 52.0782 18.8097 52.0087 19.6936C51.9491 20.508 51.7306 21.2728 51.3731 21.9878C50.6977 23.3286 49.6648 24.2821 48.2545 24.8184C47.5493 25.0865 46.8243 25.2057 46.0695 25.2455C44.7585 25.315 43.5866 25.0071 42.5437 24.1927C41.6499 23.4875 41.1334 22.5639 40.8951 21.4714C40.8057 21.0841 40.7759 20.6868 40.7858 20.4186ZM49.3271 19.2864C49.337 19.0778 49.3271 18.8494 49.2775 18.6111C49.1285 17.9258 48.8007 17.3497 48.185 16.9823C47.0329 16.297 45.5828 16.5453 44.6195 17.459C44.0236 18.0251 43.676 18.7203 43.5568 19.5347C43.4177 20.4683 43.5965 21.3224 44.2421 22.0375C44.9671 22.842 46.1688 22.9214 47.1521 22.5838C48.4631 22.1269 49.3668 20.7364 49.3271 19.2864Z" fill="white"/>
<path d="M77.0665 25.1363C75.9542 25.176 74.961 24.9376 74.087 24.302C73.4514 23.8352 72.9945 23.2393 72.7561 22.4746C72.7065 22.3355 72.7363 22.2759 72.8852 22.2263C73.7692 21.9283 74.6134 21.978 75.3781 22.5242C76.0634 23.0109 76.8083 23.2194 77.6227 23.1301C78.1292 23.0705 78.5761 22.8917 78.9237 22.4646C79.3309 21.968 79.1124 21.1139 78.4967 20.7663C77.8511 20.4088 77.1261 20.3392 76.4408 20.1307C75.4874 19.8427 74.6134 19.4255 74.0969 18.5118C73.7592 17.906 73.7394 17.2505 73.8983 16.585C74.1168 15.6713 74.7127 15.0754 75.5172 14.6484C76.4209 14.1617 77.4042 14.0127 78.4172 14.0723C79.4899 14.1319 80.4731 14.4597 81.2577 15.2343C81.5656 15.5323 81.8139 15.8898 81.9728 16.297C82.0224 16.4361 82.0125 16.4857 81.8735 16.5453C80.9597 16.9426 80.0957 16.8929 79.2316 16.3765C78.4371 15.9097 77.6028 15.86 76.7686 16.2374C76.3514 16.4261 76.0634 16.7241 76.0833 17.2306C76.0932 17.5186 76.272 17.6974 76.4607 17.8762C76.848 18.2337 77.3446 18.3132 77.8312 18.4423C78.5165 18.631 79.2217 18.7303 79.8673 19.0779C80.9796 19.6837 81.5259 20.6273 81.4365 21.8687C81.3371 23.3287 80.5426 24.2623 79.182 24.8185C78.8443 24.9575 78.4867 25.037 78.1292 25.0965C77.7717 25.1561 77.4042 25.1661 77.0665 25.1363Z" fill="white"/>
<path d="M60.9274 14.4001C60.7883 15.6614 59.5866 16.7141 58.3153 16.7042C58.0273 16.7042 57.9379 16.7737 57.8882 17.0618C57.6697 18.4125 57.4115 19.7632 57.1831 21.1139C57.1434 21.3423 57.1533 21.5708 57.1732 21.7992C57.203 22.1865 57.6697 22.5441 58.1167 22.5639C58.5636 22.5838 58.9509 22.4249 59.3482 22.2561C59.4277 22.2163 59.5071 22.1766 59.6362 22.117C59.4972 23.1201 59.4575 24.1232 58.504 24.7489C57.8485 25.176 57.1235 25.1958 56.3985 25.0071C55.1868 24.6893 54.5512 23.9742 54.4121 22.7924C54.3327 22.0971 54.4121 21.3821 54.5412 20.6868C54.72 19.7334 54.869 18.78 55.0378 17.8166C55.0875 17.4988 55.1371 17.1909 55.2166 16.883C55.2663 16.7141 55.2067 16.6943 55.0676 16.6943C54.6108 16.6943 54.1638 16.6844 53.707 16.7042C53.4686 16.7141 53.4289 16.6248 53.4686 16.4162C53.6474 15.274 54.3426 14.549 55.5046 14.3901C55.6437 14.3703 55.6735 14.3305 55.7033 14.2014C55.882 13.3374 55.9714 12.4634 56.1701 11.5993C56.2098 11.4404 56.2694 11.4404 56.3786 11.4404C57.0937 11.4901 57.6499 11.8277 58.0571 12.3938C58.4246 12.9004 58.5537 13.4863 58.4146 14.112C58.3749 14.2908 58.3948 14.4001 58.6431 14.3901C59.4078 14.3802 60.1725 14.4001 60.9274 14.4001Z" fill="white"/>
</g>
<defs>
<clipPath id="clip0_0_1">
<rect width="430" height="932" fill="white" transform="translate(-174 -67)"/>
</clipPath>
</defs>
</svg>
